<!-- icon666.com - MILLIONS vector ICONS FREE --><svg id="Dislike" enable-background="new 0 0 64 64" viewBox="0 0 64 64" xmlns="http://www.w3.org/2000/svg"><path d="m64 28.723c0 .435-.064.87-.166 1.28-.563 2.061-2.445 3.571-4.685 3.571h-3.418c2.675 0 4.851 2.176 4.851 4.851 0 .435-.064.87-.166 1.267-.576 2.061-2.458 3.571-4.685 3.571 0 0-8.23 0-17.715 0 5.21 4.25 5.926 19.2 0 19.2-6.016 0-2.598-6.989-13.03-14.272-1.28-.896-2.547-1.754-3.725-2.534v-40.345c2.086-.538 4.544-.819 7.424-.819h21.465c2.662 0 4.838 2.163 4.838 4.851 0 .435-.051.87-.166 1.267-.563 2.048-2.445 3.584-4.672 3.584h5.581c2.675 0 4.851 2.163 4.851 4.838 0 .448-.064.858-.166 1.267-.563 2.061-2.458 3.571-4.685 3.571h3.418c2.688.001 4.851 2.177 4.851 4.852zm-46.577-25.267v44.777c0 1.06-.86 1.92-1.92 1.92h-13.583c-1.06 0-1.92-.86-1.92-1.92v-44.778c0-1.06.86-1.92 1.92-1.92h13.583c1.06 0 1.919.86 1.92 1.921z" fill="gray"></path></svg>